<?xml version="1.0" encoding="UTF-8"?>
<svg width="114px" height="28px" viewBox="0 0 114 28" version="1.1" xmlns="http://www.w3.org/2000/svg" xmlns:xlink="http://www.w3.org/1999/xlink">
    <title>Group</title>
    <defs>
        <linearGradient x1="50%" y1="0%" x2="50%" y2="100%" id="linearGradient-1">
            <stop stop-color="#323232" offset="0%"></stop>
            <stop stop-color="#000000" offset="100%"></stop>
        </linearGradient>
        <linearGradient x1="50%" y1="0%" x2="50%" y2="100%" id="linearGradient-2">
            <stop stop-color="#FB0753" offset="0%"></stop>
            <stop stop-color="#F50329" offset="100%"></stop>
        </linearGradient>
    </defs>
    <g id="Registration" stroke="none" stroke-width="1" fill="none" fill-rule="evenodd">
        <g id="Splash-Page" transform="translate(-179.000000, -434.000000)" fill-rule="nonzero">
            <g id="Group" transform="translate(179.000000, 434.666000)">
                <path d="M9.80696104,26.028 C11.7494026,26.028 13.5201039,25.71 15.1190649,25.074 C16.718026,24.438 18.086026,23.544 19.2230649,22.392 C20.3601039,21.24 21.2424935,19.866 21.8702338,18.27 C22.497974,16.674 22.8118442,14.922 22.8118442,13.014 C22.8118442,11.106 22.497974,9.354 21.8702338,7.758 C21.2424935,6.162 20.3601039,4.791 19.2230649,3.645 C18.086026,2.499 16.718026,1.605 15.1190649,0.963 C13.5201039,0.321 11.7494026,1.59872116e-14 9.80696104,1.59872116e-14 L9.80696104,1.59872116e-14 L5.68434189e-14,1.59872116e-14 L5.68434189e-14,26.028 L9.80696104,26.028 Z M9.80696104,22.176 L4.81464935,22.176 L4.81464935,3.852 L9.80696104,3.852 C11.0624416,3.852 12.1905974,4.062 13.1914286,4.482 C14.1922597,4.902 15.0420779,5.505 15.7408831,6.291 C16.4396883,7.077 16.9785974,8.037 17.3576104,9.171 C17.7366234,10.305 17.9261299,11.586 17.9261299,13.014 C17.9261299,14.442 17.7366234,15.723 17.3576104,16.857 C16.9785974,17.991 16.4396883,18.951 15.7408831,19.737 C15.0420779,20.523 14.1922597,21.126 13.1914286,21.546 C12.1905974,21.966 11.0624416,22.176 9.80696104,22.176 L9.80696104,22.176 Z M30.9843117,26.028 L30.9843117,7.56 L26.5960519,7.56 L26.5960519,26.028 L30.9843117,26.028 Z M40.3293506,26.028 L40.3293506,12.672 C40.9215584,12.072 41.5492987,11.598 42.2125714,11.25 C42.8758442,10.902 43.5864935,10.728 44.3445195,10.728 C45.374961,10.728 46.1477922,11.037 46.663013,11.655 C47.1782338,12.273 47.4358442,13.146 47.4358442,14.274 L47.4358442,14.274 L47.4358442,26.028 L51.8241039,26.028 L51.8241039,14.274 C51.8241039,13.242 51.6908571,12.297 51.4243636,11.439 C51.1578701,10.581 50.767013,9.843 50.2517922,9.225 C49.7365714,8.607 49.094026,8.127 48.3241558,7.785 C47.5542857,7.443 46.6718961,7.272 45.676987,7.272 C45.0610909,7.272 44.4925714,7.332 43.9714286,7.452 C43.4502857,7.572 42.9617143,7.746 42.5057143,7.974 C42.0497143,8.202 41.6174026,8.472 41.2087792,8.784 C40.8001558,9.096 40.4122597,9.444 40.0450909,9.828 L40.0450909,9.828 L39.7430649,8.37 C39.5654026,7.83 39.1923117,7.56 38.6237922,7.56 L38.6237922,7.56 L35.9410909,7.56 L35.9410909,26.028 L40.3293506,26.028 Z M60.5295584,26.316 C61.180987,26.316 61.7731948,26.262 62.3061818,26.154 C62.8391688,26.046 63.3425455,25.884 63.8163117,25.668 C64.2900779,25.452 64.749039,25.185 65.1931948,24.867 C65.6373506,24.549 66.0903896,24.18 66.5523117,23.76 L66.5523117,23.76 L66.9431688,25.074 C67.0616104,25.458 67.2392727,25.713 67.4761558,25.839 C67.713039,25.965 68.0387532,26.028 68.4532987,26.028 L68.4532987,26.028 L70.4253506,26.028 L70.4253506,14.364 C70.4253506,13.32 70.2743377,12.36 69.9723117,11.484 C69.6702857,10.608 69.2290909,9.855 68.6487273,9.225 C68.0683636,8.595 67.3606753,8.103 66.5256623,7.749 C65.6906494,7.395 64.7401558,7.218 63.6741818,7.218 C60.7131429,7.218 58.1844156,8.19 56.088,10.134 L56.088,10.134 L56.8874805,11.556 C57.0177662,11.784 57.1895065,11.976 57.4027013,12.132 C57.6158961,12.288 57.8705455,12.366 58.1666494,12.366 C58.521974,12.366 58.8476883,12.282 59.1437922,12.114 C59.4398961,11.946 59.7626494,11.757 60.1120519,11.547 C60.4614545,11.337 60.873039,11.148 61.3468052,10.98 C61.8205714,10.812 62.4127792,10.728 63.1234286,10.728 C64.1064935,10.728 64.8556364,11.025 65.3708571,11.619 C65.8860779,12.213 66.1436883,13.128 66.1436883,14.364 L66.1436883,14.364 L66.1436883,15.444 C64.070961,15.492 62.3357922,15.696 60.9381818,16.056 C59.5405714,16.416 58.4212987,16.869 57.5803636,17.415 C56.7394286,17.961 56.1383377,18.573 55.7770909,19.251 C55.4158442,19.929 55.2352208,20.616 55.2352208,21.312 C55.2352208,22.14 55.3655065,22.866 55.6260779,23.49 C55.8866494,24.114 56.2508571,24.636 56.7187013,25.056 C57.1865455,25.476 57.7461818,25.791 58.3976104,26.001 C59.049039,26.211 59.7596883,26.316 60.5295584,26.316 Z M61.8975584,23.256 C61.1632208,23.256 60.5680519,23.088 60.1120519,22.752 C59.6560519,22.416 59.4280519,21.858 59.4280519,21.078 C59.4280519,20.682 59.5376104,20.316 59.7567273,19.98 C59.9758442,19.644 60.345974,19.35 60.8671169,19.098 C61.3882597,18.846 62.0781818,18.639 62.9368831,18.477 C63.7955844,18.315 64.8645195,18.204 66.1436883,18.144 L66.1436883,18.144 L66.1436883,21.258 C65.8238961,21.594 65.5070649,21.885 65.1931948,22.131 C64.8793247,22.377 64.5536104,22.584 64.2160519,22.752 C63.8784935,22.92 63.5202078,23.046 63.1411948,23.13 C62.7621818,23.214 62.3476364,23.256 61.8975584,23.256 Z M79.1308052,26.028 L79.1308052,14.526 C79.5808831,13.542 80.1316364,12.795 80.7830649,12.285 C81.4344935,11.775 82.2162078,11.52 83.1282078,11.52 C83.6375065,11.52 84.0461299,11.562 84.3540779,11.646 C84.662026,11.73 84.9048312,11.772 85.0824935,11.772 C85.2838442,11.772 85.4437403,11.727 85.5621818,11.637 C85.6806234,11.547 85.7576104,11.394 85.7931429,11.178 L85.7931429,11.178 L86.3616623,7.848 C85.7694545,7.428 85.0232727,7.218 84.1231169,7.218 C83.0334545,7.218 82.0503896,7.548 81.1739221,8.208 C80.2974545,8.868 79.5335065,9.768 78.8820779,10.908 L78.8820779,10.908 L78.6155844,8.676 C78.5563636,8.268 78.4379221,7.98 78.2602597,7.812 C78.0825974,7.644 77.7687273,7.56 77.3186494,7.56 L77.3186494,7.56 L74.7425455,7.56 L74.7425455,26.028 L79.1308052,26.028 Z M97.0391688,26.298 C98.4012468,26.298 99.636,26.076 100.743429,25.632 C101.850857,25.188 102.795429,24.552 103.577143,23.724 C104.358857,22.896 104.962909,21.894 105.389299,20.718 C105.815688,19.542 106.028883,18.222 106.028883,16.758 C106.028883,15.306 105.815688,13.992 105.389299,12.816 C104.962909,11.64 104.358857,10.644 103.577143,9.828 C102.795429,9.012 101.850857,8.382 100.743429,7.938 C99.636,7.494 98.4012468,7.272 97.0391688,7.272 C95.6770909,7.272 94.4393766,7.494 93.326026,7.938 C92.2126753,8.382 91.2621818,9.012 90.4745455,9.828 C89.6869091,10.644 89.0769351,11.64 88.6446234,12.816 C88.2123117,13.992 87.9961558,15.306 87.9961558,16.758 C87.9961558,18.222 88.2123117,19.542 88.6446234,20.718 C89.0769351,21.894 89.6869091,22.896 90.4745455,23.724 C91.2621818,24.552 92.2126753,25.188 93.326026,25.632 C94.4393766,26.076 95.6770909,26.298 97.0391688,26.298 Z M97.0391688,22.878 C95.4994286,22.878 94.3623896,22.359 93.6280519,21.321 C92.8937143,20.283 92.5265455,18.774 92.5265455,16.794 C92.5265455,14.814 92.8937143,13.299 93.6280519,12.249 C94.3623896,11.199 95.4994286,10.674 97.0391688,10.674 C98.5552208,10.674 99.6774545,11.196 100.40587,12.24 C101.134286,13.284 101.498494,14.802 101.498494,16.794 C101.498494,18.786 101.134286,20.298 100.40587,21.33 C99.6774545,22.362 98.5552208,22.878 97.0391688,22.878 Z" id="Dinaro" fill="url(#linearGradient-1)"></path>
                <path d="M111.110026,26.28 C111.477195,26.28 111.826597,26.211 112.158234,26.073 C112.48987,25.935 112.77413,25.746 113.011013,25.506 C113.247896,25.266 113.437403,24.981 113.579532,24.651 C113.721662,24.321 113.792727,23.964 113.792727,23.58 C113.792727,23.208 113.721662,22.854 113.579532,22.518 C113.437403,22.182 113.247896,21.894 113.011013,21.654 C112.77413,21.414 112.48987,21.222 112.158234,21.078 C111.826597,20.934 111.477195,20.862 111.110026,20.862 C110.731013,20.862 110.375688,20.934 110.044052,21.078 C109.712416,21.222 109.425195,21.414 109.18239,21.654 C108.939584,21.894 108.750078,22.182 108.61387,22.518 C108.477662,22.854 108.409558,23.208 108.409558,23.58 C108.409558,23.964 108.477662,24.321 108.61387,24.651 C108.750078,24.981 108.939584,25.266 109.18239,25.506 C109.425195,25.746 109.712416,25.935 110.044052,26.073 C110.375688,26.211 110.731013,26.28 111.110026,26.28 Z" id="." fill="url(#linearGradient-2)"></path>
            </g>
        </g>
    </g>
</svg>